<svg width="261" height="261" viewBox="0 0 261 261" fill="none" xmlns="http://www.w3.org/2000/svg">
<g filter="url(#filter0_d_22_660)">
<rect x="40.9329" y="36.4058" width="180" height="180" rx="32" fill="white"/>
<rect x="41.4329" y="36.9058" width="179" height="179" rx="31.5" stroke="#D9D9D9"/>
</g>
<path d="M110.94 113.55L129.913 102.596C130.146 102.462 130.411 102.391 130.68 102.391C130.95 102.391 131.214 102.462 131.448 102.596L150.42 113.55C150.654 113.685 150.848 113.879 150.982 114.112C151.117 114.345 151.188 114.61 151.188 114.88V136.787C151.188 137.335 150.895 137.842 150.42 138.117L131.448 149.071C131.214 149.205 130.95 149.276 130.68 149.276C130.411 149.276 130.146 149.205 129.913 149.071L110.94 138.117C110.707 137.982 110.513 137.788 110.378 137.555C110.243 137.321 110.172 137.057 110.172 136.787V114.879C110.173 114.331 110.465 113.824 110.94 113.55" fill="#8080F2"/>
<path d="M179.867 124.038L157.174 84.5588C156.349 83.1315 154.827 82.0784 153.178 82.0784H107.792C106.143 82.0784 104.62 83.1315 103.796 84.5588L81.1032 123.951C80.2789 125.379 80.2789 127.181 81.1032 128.609L103.796 167.764C104.62 169.192 106.143 169.922 107.792 169.922H153.178C154.826 169.922 156.349 169.214 157.173 167.786L179.866 128.566C180.691 127.139 180.691 125.466 179.866 124.038H179.867ZM161.076 143.023C161.076 143.603 160.726 144.14 160.223 144.43L131.317 161.107C131.068 161.25 130.787 161.325 130.5 161.325C130.213 161.325 129.931 161.25 129.682 161.107L100.754 144.43C100.251 144.14 99.8993 143.603 99.8993 143.022V109.667C99.8993 109.087 100.246 108.55 100.749 108.26L129.654 91.5823C129.902 91.4395 130.184 91.3643 130.471 91.3643C130.758 91.3643 131.04 91.4395 131.288 91.5823L160.218 108.26C160.722 108.55 161.076 109.087 161.076 109.667V143.022V143.023Z" fill="#4B32C3"/>
<defs>
<filter id="filter0_d_22_660" x="0.932861" y="0.405762" width="260" height="260" filterUnits="userSpaceOnUse" color-interpolation-filters="sRGB">
<feFlood flood-opacity="0" result="BackgroundImageFix"/>
<feColorMatrix in="SourceAlpha" type="matrix" values="0 0 0 0 0 0 0 0 0 0 0 0 0 0 0 0 0 0 127 0" result="hardAlpha"/>
<feOffset dy="4"/>
<feGaussianBlur stdDeviation="20"/>
<feComposite in2="hardAlpha" operator="out"/>
<feColorMatrix type="matrix" values="0 0 0 0 0.0367917 0 0 0 0 0.0348958 0 0 0 0 0.0484375 0 0 0 0.1 0"/>
<feBlend mode="normal" in2="BackgroundImageFix" result="effect1_dropShadow_22_660"/>
<feBlend mode="normal" in="SourceGraphic" in2="effect1_dropShadow_22_660" result="shape"/>
</filter>
</defs>
</svg>
