<svg width="261" height="261" viewBox="0 0 261 261" fill="none" xmlns="http://www.w3.org/2000/svg">
<g filter="url(#filter0_d_22_656)">
<rect x="40.9329" y="36.4058" width="180" height="180" rx="32" fill="white"/>
<rect x="41.4329" y="36.9058" width="179" height="179" rx="31.5" stroke="#D9D9D9"/>
</g>
<path d="M154.571 95.0476H159.333C160.666 95.0476 161.714 96.0952 161.714 97.4286C161.714 98.7619 160.666 99.8095 159.333 99.8095H154.571C153.237 99.8095 152.19 98.7619 152.19 97.4286C152.19 96.0952 153.237 95.0476 154.571 95.0476Z" fill="#56B3B4"/>
<path d="M83.1421 171.238H106.952C108.285 171.238 109.333 172.286 109.333 173.619C109.333 174.953 108.285 176 106.952 176H83.1421C81.8087 176 80.7611 174.953 80.7611 173.619C80.7611 172.286 81.8087 171.238 83.1421 171.238Z" fill="#EA5E5E"/>
<path d="M140.285 133.143H154.571C155.904 133.143 156.951 134.191 156.951 135.524C156.951 136.857 155.904 137.905 154.571 137.905H140.285C138.952 137.905 137.904 136.857 137.904 135.524C137.904 134.191 138.952 133.143 140.285 133.143Z" fill="#BF85BF"/>
<path d="M111.713 133.143H130.761C132.094 133.143 133.142 134.191 133.142 135.524C133.142 136.857 132.094 137.905 130.761 137.905H111.713C110.38 137.905 109.333 136.857 109.333 135.524C109.333 134.191 110.38 133.143 111.713 133.143Z" fill="#EA5E5E"/>
<path d="M83.1421 133.143H102.19C103.523 133.143 104.571 134.191 104.571 135.524C104.571 136.857 103.523 137.905 102.19 137.905H83.1421C81.8087 137.905 80.7611 136.857 80.7611 135.524C80.7611 134.191 81.8087 133.143 83.1421 133.143Z" fill="#56B3B4"/>
<path d="M83.1421 152.19H106.952C108.285 152.19 109.333 153.238 109.333 154.571C109.333 155.905 108.285 156.952 106.952 156.952H83.1421C81.8087 156.952 80.7611 155.905 80.7611 154.571C80.7611 153.238 81.8087 152.19 83.1421 152.19Z" fill="#BF85BF"/>
<path d="M83.1421 114.095H106.952C108.285 114.095 109.333 115.143 109.333 116.476C109.333 117.81 108.285 118.857 106.952 118.857H83.1421C81.8087 118.857 80.7611 117.81 80.7611 116.476C80.7611 115.143 81.8087 114.095 83.1421 114.095Z" fill="#BF85BF"/>
<path d="M106.952 85.5239H154.57C155.904 85.5239 156.951 86.5716 156.951 87.9049C156.951 89.2382 155.904 90.2859 154.57 90.2859H106.952C105.618 90.2859 104.571 89.2382 104.571 87.9049C104.571 86.5716 105.618 85.5239 106.952 85.5239Z" fill="#F7BA3E"/>
<path d="M83.1421 85.5239H97.4278C98.7611 85.5239 99.8087 86.5716 99.8087 87.9049C99.8087 89.2382 98.7611 90.2859 97.4278 90.2859H83.1421C81.8087 90.2859 80.7611 89.2382 80.7611 87.9049C80.7611 86.5716 81.8087 85.5239 83.1421 85.5239Z" fill="#EA5E5E"/>
<path d="M102.19 161.714H106.952C108.285 161.714 109.333 162.762 109.333 164.095C109.333 165.429 108.285 166.476 106.952 166.476H102.19C100.856 166.476 99.8087 165.429 99.8087 164.095C99.8087 162.762 100.856 161.714 102.19 161.714Z" fill="#F7BA3E"/>
<path d="M102.19 104.572H106.952C108.285 104.572 109.333 105.619 109.333 106.952C109.333 108.286 108.285 109.333 106.952 109.333H102.19C100.856 109.333 99.8087 108.286 99.8087 106.952C99.8087 105.619 100.856 104.572 102.19 104.572Z" fill="#56B3B4"/>
<path d="M83.1421 161.714H92.6659C93.9992 161.714 95.0468 162.762 95.0468 164.095C95.0468 165.429 93.9992 166.476 92.6659 166.476H83.1421C81.8087 166.476 80.7611 165.429 80.7611 164.095C80.7611 162.762 81.8087 161.714 83.1421 161.714Z" fill="#56B3B4"/>
<path d="M83.1421 104.572H92.6659C93.9992 104.572 95.0468 105.619 95.0468 106.952C95.0468 108.286 93.9992 109.333 92.6659 109.333H83.1421C81.8087 109.333 80.7611 108.286 80.7611 106.952C80.7611 105.619 81.8087 104.572 83.1421 104.572Z" fill="#F7BA3E"/>
<path opacity="0.5" d="M145.047 161.714H149.809C151.142 161.714 152.19 162.762 152.19 164.095C152.19 165.429 151.142 166.476 149.809 166.476H145.047C143.714 166.476 142.666 165.429 142.666 164.095C142.666 162.762 143.714 161.714 145.047 161.714Z" fill="#D0D4D8"/>
<path opacity="0.5" d="M116.475 161.714H135.523C136.857 161.714 137.904 162.762 137.904 164.095C137.904 165.429 136.857 166.476 135.523 166.476H116.475C115.142 166.476 114.094 165.429 114.094 164.095C114.094 162.762 115.142 161.714 116.475 161.714Z" fill="#D0D4D8"/>
<path opacity="0.5" d="M159.333 161.714H178.38C179.714 161.714 180.761 162.762 180.761 164.095C180.761 165.429 179.714 166.476 178.38 166.476H159.333C157.999 166.476 156.952 165.429 156.952 164.095C156.952 162.762 157.999 161.714 159.333 161.714Z" fill="#D0D4D8"/>
<path d="M121.237 123.619H159.332C160.666 123.619 161.713 124.667 161.713 126C161.713 127.333 160.666 128.381 159.332 128.381H121.237C119.904 128.381 118.856 127.333 118.856 126C118.856 124.667 119.904 123.619 121.237 123.619Z" fill="#56B3B4"/>
<path d="M97.4278 123.619H111.714C113.047 123.619 114.094 124.667 114.094 126C114.094 127.333 113.047 128.381 111.714 128.381H97.4278C96.0945 128.381 95.0469 127.333 95.0469 126C95.0469 124.667 96.0945 123.619 97.4278 123.619Z" fill="#F7BA3E"/>
<path d="M83.1421 123.619H87.904C89.2373 123.619 90.2849 124.667 90.2849 126C90.2849 127.333 89.2373 128.381 87.904 128.381H83.1421C81.8087 128.381 80.7611 127.333 80.7611 126C80.7611 124.667 81.8087 123.619 83.1421 123.619Z" fill="#EA5E5E"/>
<path d="M125.999 95.0476H145.047C146.38 95.0476 147.428 96.0952 147.428 97.4286C147.428 98.7619 146.38 99.8095 145.047 99.8095H125.999C124.666 99.8095 123.618 98.7619 123.618 97.4286C123.618 96.0952 124.666 95.0476 125.999 95.0476Z" fill="#BF85BF"/>
<path d="M83.1421 95.0476H116.475C117.809 95.0476 118.856 96.0952 118.856 97.4286C118.856 98.7619 117.809 99.8095 116.475 99.8095H83.1421C81.8087 99.8095 80.7611 98.7619 80.7611 97.4286C80.7611 96.0952 81.8087 95.0476 83.1421 95.0476Z" fill="#56B3B4"/>
<path d="M97.4278 142.667H140.285C141.618 142.667 142.666 143.714 142.666 145.047C142.666 146.381 141.618 147.428 140.285 147.428H97.4278C96.0945 147.428 95.0469 146.381 95.0469 145.047C95.0469 143.714 96.0945 142.667 97.4278 142.667Z" fill="#F7BA3E"/>
<path d="M83.1421 142.667H87.904C89.2373 142.667 90.2849 143.714 90.2849 145.047C90.2849 146.381 89.2373 147.428 87.904 147.428H83.1421C81.8087 147.428 80.7611 146.381 80.7611 145.047C80.7611 143.714 81.8087 142.667 83.1421 142.667Z" fill="#BF85BF"/>
<path d="M140.285 104.572H164.094C165.428 104.572 166.475 105.619 166.475 106.952C166.475 108.286 165.428 109.333 164.094 109.333H140.285C138.952 109.333 137.904 108.286 137.904 106.952C137.904 105.619 138.952 104.572 140.285 104.572Z" fill="#EA5E5E"/>
<path d="M140.285 114.095H164.094C165.428 114.095 166.475 115.143 166.475 116.476C166.475 117.81 165.428 118.857 164.094 118.857H140.285C138.952 118.857 137.904 117.81 137.904 116.476C137.904 115.143 138.952 114.095 140.285 114.095Z" fill="#F7BA3E"/>
<path d="M83.1421 76H140.285C141.618 76 142.666 77.0476 142.666 78.381C142.666 79.7143 141.618 80.7619 140.285 80.7619H83.1421C81.8087 80.7619 80.7611 79.7143 80.7611 78.381C80.7611 77.0476 81.8087 76 83.1421 76Z" fill="#56B3B4"/>
<path opacity="0.5" d="M149.809 76H178.38C179.713 76 180.761 77.0476 180.761 78.381C180.761 79.7143 179.713 80.7619 178.38 80.7619H149.809C148.475 80.7619 147.428 79.7143 147.428 78.381C147.428 77.0476 148.475 76 149.809 76Z" fill="#D0D4D8"/>
<path opacity="0.5" d="M149.809 142.667H159.332C160.666 142.667 161.713 143.714 161.713 145.047C161.713 146.381 160.666 147.428 159.332 147.428H149.809C148.475 147.428 147.428 146.381 147.428 145.047C147.428 143.714 148.475 142.667 149.809 142.667Z" fill="#D0D4D8"/>
<path opacity="0.5" d="M168.856 142.667H178.38C179.713 142.667 180.761 143.714 180.761 145.047C180.761 146.381 179.713 147.428 178.38 147.428H168.856C167.523 147.428 166.475 146.381 166.475 145.047C166.475 143.714 167.523 142.667 168.856 142.667Z" fill="#D0D4D8"/>
<path opacity="0.5" d="M164.094 133.143H178.38C179.714 133.143 180.761 134.191 180.761 135.524C180.761 136.857 179.714 137.905 178.38 137.905H164.094C162.761 137.905 161.714 136.857 161.714 135.524C161.714 134.191 162.761 133.143 164.094 133.143Z" fill="#D0D4D8"/>
<path opacity="0.5" d="M164.094 85.5239H178.38C179.714 85.5239 180.761 86.5716 180.761 87.9049C180.761 89.2382 179.714 90.2859 178.38 90.2859H164.094C162.761 90.2859 161.714 89.2382 161.714 87.9049C161.714 86.5716 162.761 85.5239 164.094 85.5239Z" fill="#D0D4D8"/>
<path opacity="0.5" d="M168.856 123.619H178.38C179.713 123.619 180.761 124.667 180.761 126C180.761 127.333 179.713 128.381 178.38 128.381H168.856C167.523 128.381 166.475 127.333 166.475 126C166.475 124.667 167.523 123.619 168.856 123.619Z" fill="#D0D4D8"/>
<path opacity="0.5" d="M168.856 95.0476H178.38C179.713 95.0476 180.761 96.0952 180.761 97.4286C180.761 98.7619 179.713 99.8095 178.38 99.8095H168.856C167.523 99.8095 166.475 98.7619 166.475 97.4286C166.475 96.0952 167.523 95.0476 168.856 95.0476Z" fill="#D0D4D8"/>
<path opacity="0.5" d="M173.618 104.572H178.38C179.714 104.572 180.761 105.619 180.761 106.952C180.761 108.286 179.714 109.333 178.38 109.333H173.618C172.285 109.333 171.237 108.286 171.237 106.952C171.237 105.619 172.285 104.572 173.618 104.572Z" fill="#D0D4D8"/>
<path opacity="0.5" d="M173.618 114.095H178.38C179.714 114.095 180.761 115.143 180.761 116.476C180.761 117.81 179.714 118.857 178.38 118.857H173.618C172.285 118.857 171.237 117.81 171.237 116.476C171.237 115.143 172.285 114.095 173.618 114.095Z" fill="#D0D4D8"/>
<path opacity="0.5" d="M135.523 152.19H178.38C179.714 152.19 180.761 153.238 180.761 154.571C180.761 155.905 179.714 156.952 178.38 156.952H135.523C134.19 156.952 133.142 155.905 133.142 154.571C133.142 153.238 134.19 152.19 135.523 152.19Z" fill="#D0D4D8"/>
<path opacity="0.5" d="M116.475 152.19H125.999C127.333 152.19 128.38 153.238 128.38 154.571C128.38 155.905 127.333 156.952 125.999 156.952H116.475C115.142 156.952 114.094 155.905 114.094 154.571C114.094 153.238 115.142 152.19 116.475 152.19Z" fill="#D0D4D8"/>
<path opacity="0.5" d="M154.571 171.238H178.38C179.714 171.238 180.761 172.286 180.761 173.619C180.761 174.953 179.714 176 178.38 176H154.571C153.237 176 152.19 174.953 152.19 173.619C152.19 172.286 153.237 171.238 154.571 171.238Z" fill="#D0D4D8"/>
<path opacity="0.5" d="M116.475 171.238H145.047C146.38 171.238 147.428 172.286 147.428 173.619C147.428 174.953 146.38 176 145.047 176H116.475C115.142 176 114.094 174.953 114.094 173.619C114.094 172.286 115.142 171.238 116.475 171.238Z" fill="#D0D4D8"/>
<path opacity="0.5" d="M116.475 104.572H130.761C132.095 104.572 133.142 105.619 133.142 106.952C133.142 108.286 132.095 109.333 130.761 109.333H116.475C115.142 109.333 114.094 108.286 114.094 106.952C114.094 105.619 115.142 104.572 116.475 104.572Z" fill="#D0D4D8"/>
<path opacity="0.5" d="M116.475 114.095H130.761C132.095 114.095 133.142 115.143 133.142 116.476C133.142 117.81 132.095 118.857 130.761 118.857H116.475C115.142 118.857 114.094 117.81 114.094 116.476C114.094 115.143 115.142 114.095 116.475 114.095Z" fill="#D0D4D8"/>
<defs>
<filter id="filter0_d_22_656" x="0.932861" y="0.405762" width="260" height="260" filterUnits="userSpaceOnUse" color-interpolation-filters="sRGB">
<feFlood flood-opacity="0" result="BackgroundImageFix"/>
<feColorMatrix in="SourceAlpha" type="matrix" values="0 0 0 0 0 0 0 0 0 0 0 0 0 0 0 0 0 0 127 0" result="hardAlpha"/>
<feOffset dy="4"/>
<feGaussianBlur stdDeviation="20"/>
<feComposite in2="hardAlpha" operator="out"/>
<feColorMatrix type="matrix" values="0 0 0 0 0.0367917 0 0 0 0 0.0348958 0 0 0 0 0.0484375 0 0 0 0.1 0"/>
<feBlend mode="normal" in2="BackgroundImageFix" result="effect1_dropShadow_22_656"/>
<feBlend mode="normal" in="SourceGraphic" in2="effect1_dropShadow_22_656" result="shape"/>
</filter>
</defs>
</svg>
